<svg xmlns="http://www.w3.org/2000/svg" fill="none" viewBox="2.6 26.400000000000002 93.8 49.6" style="max-height: 500px" width="93.8" height="49.6">
<path fill="url(#paint0_linear_1_7)" d="M4.48 74V27.92H12.288L33.664 60.4V27.92H41.472V74H33.664L12.288 41.52V74H4.48Z"/>
<g data-figma-skip-parse="true" clip-path="url(#paint1_diamond_1_7_clip_path)"><g transform="matrix(-0.0125 0.0165 -0.00573626 -0.00434565 69 31.5)"><rect shape-rendering="crispEdges" opacity="1" fill="url(#paint1_diamond_1_7)" height="8766.6" width="2645.86" y="0" x="0"/><rect shape-rendering="crispEdges" opacity="1" fill="url(#paint1_diamond_1_7)" transform="scale(1 -1)" height="8766.6" width="2645.86" y="0" x="0"/><rect shape-rendering="crispEdges" opacity="1" fill="url(#paint1_diamond_1_7)" transform="scale(-1 1)" height="8766.6" width="2645.86" y="0" x="0"/><rect shape-rendering="crispEdges" opacity="1" fill="url(#paint1_diamond_1_7)" transform="scale(-1)" height="8766.6" width="2645.86" y="0" x="0"/></g></g><path data-figma-gradient-fill="{&quot;type&quot;:&quot;GRADIENT_DIAMOND&quot;,&quot;stops&quot;:[{&quot;color&quot;:{&quot;r&quot;:0.0,&quot;g&quot;:0.0,&quot;b&quot;:0.0,&quot;a&quot;:0.0},&quot;position&quot;:0.0},{&quot;color&quot;:{&quot;r&quot;:1.0,&quot;g&quot;:1.0,&quot;b&quot;:1.0,&quot;a&quot;:1.0},&quot;position&quot;:1.0}],&quot;stopsVar&quot;:[{&quot;color&quot;:{&quot;r&quot;:0.0,&quot;g&quot;:0.0,&quot;b&quot;:0.0,&quot;a&quot;:0.0},&quot;position&quot;:0.0},{&quot;color&quot;:{&quot;r&quot;:1.0,&quot;g&quot;:1.0,&quot;b&quot;:1.0,&quot;a&quot;:1.0},&quot;position&quot;:1.0}],&quot;transform&quot;:{&quot;m00&quot;:-25.000001907348633,&quot;m01&quot;:-11.472516059875488,&quot;m02&quot;:87.236267089843750,&quot;m10&quot;:33.0,&quot;m11&quot;:-8.6912994384765625,&quot;m12&quot;:19.345647811889648},&quot;opacity&quot;:1.0,&quot;blendMode&quot;:&quot;NORMAL&quot;,&quot;visible&quot;:true}" d="M79.464 74.864C77.16 74.864 74.984 74.416 72.936 73.52C70.888 72.624 69.1067 71.3547 67.592 69.712C66.0987 68.0693 65.0213 66.128 64.36 63.888L71.816 61.872C72.3493 63.7067 73.32 65.1253 74.728 66.128C76.1573 67.1093 77.7253 67.5893 79.432 67.568C80.9467 67.568 82.3013 67.216 83.496 66.512C84.6907 65.808 85.6293 64.8587 86.312 63.664C86.9947 62.448 87.336 61.0933 87.336 59.6C87.336 57.3173 86.6 55.408 85.128 53.872C83.656 52.336 81.7573 51.568 79.432 51.568C78.728 51.568 78.0347 51.664 77.352 51.856C76.6907 52.048 76.0507 52.3147 75.432 52.656L71.912 46.576L87.4 33.328L88.072 35.184H66.152V27.92H94.408V35.216L81.96 47.184L81.896 44.912C84.6907 45.104 87.0693 45.8827 89.032 47.248C91.016 48.6133 92.5307 50.3733 93.576 52.528C94.6427 54.6827 95.176 57.04 95.176 59.6C95.176 62.5013 94.4613 65.104 93.032 67.408C91.624 69.712 89.7253 71.536 87.336 72.88C84.968 74.2027 82.344 74.864 79.464 74.864Z"/>
<path fill="white" d="M48.198 74L33.67 27.92H41.606L53.766 66.512L66.086 27.92H74.022L59.494 74H48.198Z"/>
<defs>
<clipPath id="paint1_diamond_1_7_clip_path"><path d="M79.464 74.864C77.16 74.864 74.984 74.416 72.936 73.52C70.888 72.624 69.1067 71.3547 67.592 69.712C66.0987 68.0693 65.0213 66.128 64.36 63.888L71.816 61.872C72.3493 63.7067 73.32 65.1253 74.728 66.128C76.1573 67.1093 77.7253 67.5893 79.432 67.568C80.9467 67.568 82.3013 67.216 83.496 66.512C84.6907 65.808 85.6293 64.8587 86.312 63.664C86.9947 62.448 87.336 61.0933 87.336 59.6C87.336 57.3173 86.6 55.408 85.128 53.872C83.656 52.336 81.7573 51.568 79.432 51.568C78.728 51.568 78.0347 51.664 77.352 51.856C76.6907 52.048 76.0507 52.3147 75.432 52.656L71.912 46.576L87.4 33.328L88.072 35.184H66.152V27.92H94.408V35.216L81.96 47.184L81.896 44.912C84.6907 45.104 87.0693 45.8827 89.032 47.248C91.016 48.6133 92.5307 50.3733 93.576 52.528C94.6427 54.6827 95.176 57.04 95.176 59.6C95.176 62.5013 94.4613 65.104 93.032 67.408C91.624 69.712 89.7253 71.536 87.336 72.88C84.968 74.2027 82.344 74.864 79.464 74.864Z"/></clipPath><linearGradient gradientUnits="userSpaceOnUse" y2="36.5" x2="40" y1="38.5" x1="34" id="paint0_linear_1_7">
<stop stop-color="white"/>
<stop stop-opacity="0" offset="1"/>
</linearGradient>
<linearGradient gradientUnits="userSpaceOnUse" y2="500" x2="500" y1="0" x1="0" id="paint1_diamond_1_7">
<stop stop-opacity="0"/>
<stop stop-color="white" offset="1"/>
</linearGradient>
</defs>
</svg>