<svg xmlns="http://www.w3.org/2000/svg" fill="none" style="max-height:500px" viewBox="0 5.67 31.62204724 15.33"><path fill="#fff" d="M.32 20V6h5.02l2.78 12.2h.36V6h2.6l.1924 3.34978H11.08V20H6.06L3.28 7.8h-.36V20H.32Zm25.76.28c-1.0533 0-1.9867-.1867-2.8-.56-.8133-.3733-1.4533-.9067-1.92-1.6-.4533-.7067-.68-1.54-.68-2.5v-.36h2.56v.28c0 .7467.26 1.3467.78 1.8.52.44 1.2067.66 2.06.66.8667 0 1.5333-.2067 2-.62.48-.4133.72-.9333.72-1.56v-.2c0-.4267-.1067-.7733-.32-1.04-.2133-.2667-.5-.46-.86-.58-.36-.1333-.7667-.2-1.22-.2h-2.8V11l4.52-2.4v-.32h-7.08V6h9.92v3.4l-4.22 2.24v.32h.74c.6267 0 1.2333.1267 1.82.38.6.2533 1.0933.6467 1.48 1.18.3867.52.58 1.2.58 2.04v.24c0 .9067-.22 1.7-.66 2.38-.44.6667-1.06 1.1867-1.86 1.56-.7867.36-1.7067.54-2.76.54Z"/><path fill="#fff" d="M13.92 20 10.36 6h2.72l2.96 12.3h.28L19.28 6H22l-3.56 14h-4.52Z"/></svg>