<svg xmlns="http://www.w3.org/2000/svg" fill="none" viewBox="0 0 85 27"><g clip-path="url(#a)"><path fill="#FF4438" fill-rule="evenodd" d="M75.2909 13.8125c0-2.9677 2.1983-4.68966 4.9462-4.68966 2.0517 0 3.8836.98926 4.7629 3.44396-.2565 1.2457-1.7953 2.6379-2.4547 2.8578-.5496-1.1724-1.1725-1.8686-1.7587-1.8686-.7327 0-.7694.513-.7694 1.1724 0 .4671.1338 1.155.2947 1.9828.243 1.2503.548 2.8197.548 4.4289 0 2.931-2.0517 5.0927-5.2026 5.0927-2.8852 0-4.4795-1.8914-5.1908-4.913-1.8847 3.3774-4.6408 4.913-6.7531 4.913-3.3024 0-4.0796-2.4409-4.0013-4.9167-1.3269 2.3451-3.8811 4.9167-6.3306 4.9167-2.5006 0-3.3839-2.1765-3.1813-4.7113-1.4982 2.7907-4.2083 4.7113-6.8209 4.7113-2.8351 0-4.2383-2.2522-3.7842-5.0438-1.9073 2.3443-5.4577 5.0438-9.149 5.0438-4.2088 0-6.0408-2.2696-6.2579-5.1135-2.0314 3.2557-4.7695 5.2234-8.0309 5.2234-4.708 0-6.39193-4.1866-6.63698-7.6112-1.74485 2.3366-3.70655 4.7608-6.11299 7.4646-.25647.2565-.4763.403-.73276.403-.84267 0-2.564656-3.737-2.67457-5.1293.723099-1.122 5.28119-6.13 8.95093-10.1619C10.2409 9.89066 11.4211 8.594 12.2863 7.6291c-2.2474.67816-4.56461 2.03065-7.48673 4.1317-.51293.3664-1.94181-2.9677-1.90517-5.53235 3.37069-2.49138 8.5-4.06681 12.6401-4.06681 5.7888 0 9.1228 3.22414 9.1228 7.69396 0 3.7371-3.1142 7.8405-7.6573 7.9871-2.3623.0613-3.8763-1.2647-4.6506-2.9022.0925 2.5325 1.4093 5.65 4.9437 5.65 3.8531 0 5.7034-2.3259 8.4628-5.7947.1793-.2254.3624-.4555.5501-.6902 2.3449-2.8944 5.0561-5.45905 9.013-5.45905 2.4181 0 4.0668 1.50215 4.0668 3.77375 0 2.7478-3.2242 6.5581-7.7306 6.5581-.7697 0-1.4713-.1014-2.0635-.3018-.0149.1155-.0249.2292-.0249.3385 0 1.2823.4763 2.0517 2.5647 2.0517 3.0776 0 5.9719-1.8319 9.4892-6.1185 3.444-4.2134 6.0452-6.04528 8.7931-6.04528 1.8549 0 3.2627 1.0053 3.8831 2.69838C57.9796 6.28253 61.1038 2.51388 63.75 0c2.6013 1.09914 4.4698 3.26078 3.9569 3.70043-1.9418 1.75862-8.4267 8.82977-10.9914 13.04307-.6595 1.0992-1.2823 2.3082-1.2823 2.8944 0 .5496.3297.7328.6961.7328 1.7605 0 5.2883-4.156 8.3352-7.7454 1.1381-1.3408 2.2091-2.6025 3.0958-3.53909 2.0518.84267 4.1401 2.63789 3.6272 3.26079-2.7112 3.2241-4.7629 5.8621-4.7629 7.3642 0 .403.1465.6595.6961.6595 1.0259 0 1.9784-.916 3.5539-2.8578.3297-.403.7327-.403.9892.2199.6961 1.6853 1.722 2.6013 2.528 2.6013.9526 0 1.4289-.8427 1.4289-2.125 0-.8764-.107-1.8953-.199-2.7726-.0696-.6632-.1308-1.2455-.1308-1.624Zm-59.0969-.4763c1.9418 0 4.0668-1.0625 4.0668-3.2241 0-1.31186-.8142-2.52126-2.99-2.88953-.1148.17935-.2288.3576-.3421.53482-1.1056 1.72841-2.1483 3.35861-3.2006 4.95211.6305.3541 1.4279.6267 2.4659.6267Zm19.6379.6595c0-.5862-.3664-.9892-.9526-.9892-1.4699 0-3.687 2.0628-4.7303 4.0548.3851.1488.8372.2318 1.323.2318 2.6013 0 4.3599-1.9784 4.3599-3.2974Zm9.6358 5.3125c0 .6595.3663 1.0991 1.1357 1.0991 2.3815 0 5.3492-4.3232 5.3492-6.0819 0-.7327-.403-1.1724-1.0625-1.1724-2.1616 0-5.4224 4.1035-5.4224 6.1552ZM76.0599 6.08207c-.8427 1.39224-2.125 2.96767-2.6013 3.44396-2.1983-.91595-4.25-2.74784-3.9569-3.26078.806-1.42887 2.125-2.96767 2.6013-3.44396 2.1982.91595 4.25 2.78448 3.9569 3.26078Z" clip-rule="evenodd"/></g><defs><clipPath id="a"><path fill="#fff" d="M0 0h85v26.5991H0z"/></clipPath></defs></svg>